# xmcd
# 
# Track frame offsets:
#   150
#   15915
#   36757
#   50592
#   66275
#   78167
#   96890
#   112002
#   126597
#   139202
#   154477
#   172905
#   187387
#   206957
#   220255
# 
# Disc length: 3133 seconds
# 
# Revision: 4
# Processed by: cddbd v1.5.2PL0 Copyright (c) Steve Scherf et al.
# Submitted via: Synapstar 1.0 
# 
DISCID=e30c3b0f
DTITLE=Various Artist - SC7551
DYEAR=1900
DGENRE=Country
TTITLE0=Forester Sisters, The - I Fell In Love Again Last Night
TTITLE1=Kenny Rogers - Coward Of The County
TTITLE2=John Conlee - Common Man
TTITLE3=Don Williams - Amanda
TTITLE4=George Strait - Unwound
TTITLE5=Glen Campbell - Rhinestone Cowboy
TTITLE6=Tanya Tucker - Blood Red And Going Down
TTITLE7=Garth Brooks - Much Too Young To Feel This Damn Old
TTITLE8=Hank Williams Jr - Gonna Go Huntin' Tonight
TTITLE9=Dolly Parton - Two Doors Down
TTITLE10=Dwight Yoakam - I Sang Dixie
TTITLE11=Waylon Jennings - Clyde
TTITLE12=Reba McEntire - Just A Little Love
TTITLE13=Hank Williams Jr - Stoned At The Jukebox
TTITLE14=Highway 101 - Whiskey, If You Were A Woman
EXTD=
EXTT0=
EXTT1=
EXTT2=
EXTT3=
EXTT4=
EXTT5=
EXTT6=
EXTT7=
EXTT8=
EXTT9=
EXTT10=
EXTT11=
EXTT12=
EXTT13=
EXTT14=
PLAYORDER=
